<svg xmlns="http://www.w3.org/2000/svg" width="72" viewBox="0 0 54 33" height="44" version="1.0"><defs><clipPath id="a"><path d="M14.773 4.273h24.75V29h-24.75zm0 0"/></clipPath><clipPath id="b"><path d="M14.773 11h24.75v12h-24.75zm0 0"/></clipPath><clipPath id="c"><path d="M14.773 12h24.75v10h-24.75zm0 0"/></clipPath></defs><path fill="#FFF" d="M-5.4-3.3h64.8v39.6H-5.4z"/><path fill="#FFF" d="M-5.4-3.3h64.8v39.6H-5.4z"/><g clip-path="url(#a)"><path fill="#FFF" d="M14.773 4.273H39.47V28.97H14.773zm0 0"/><path fill="#006FCF" d="M39.469 17.652V4.285H14.773V28.98H39.47v-7.203c-.055 0 0-4.125 0-4.125"/></g><g clip-path="url(#b)"><path fill="#FFF" d="M36.445 16.277h1.871V11.93h-2.035v.605l-.386-.605h-1.758v.77l-.332-.77h-3.246c-.11 0-.22.054-.329.054-.109 0-.164.055-.277.114-.11.054-.164.054-.273.109v-.277h-9.293l-.278.715-.273-.715h-2.2v.77l-.331-.77h-1.758l-.774 1.87v2.477h1.266l.223-.605h.437l.223.605h9.68v-.55l.382.55h2.696v-.332c.054.055.164.055.218.11.055.054.168.054.223.11.11.058.219.058.328.058h1.98l.22-.606h.44l.22.606h2.695v-.551zm3.024 5.5v-4.07H24.344l-.383.55-.387-.55h-4.398v4.344h4.398l.387-.551.383.55h2.75v-.933h-.11c.387 0 .715-.055.993-.168v1.156h1.976v-.55l.387.55h8.195c.328-.109.66-.164.934-.328zm0 0"/></g><g clip-path="url(#c)"><path fill="#006FCF" d="M38.535 20.73h-1.484v.606h1.43c.605 0 .988-.387.988-.934 0-.55-.328-.828-.88-.828h-.66c-.163 0-.273-.11-.273-.273 0-.164.11-.274.274-.274h1.265l.274-.605h-1.485c-.605 0-.988.383-.988.879 0 .55.328.824.879.824h.66c.164 0 .274.11.274.277.054.22-.055.328-.274.328zm-2.695 0h-1.485v.606h1.43c.606 0 .988-.387.988-.934 0-.55-.328-.828-.878-.828h-.66c-.165 0-.274-.11-.274-.273 0-.164.11-.274.273-.274H36.5l.273-.605H35.29c-.605 0-.988.383-.988.879 0 .55.328.824.879.824h.66c.164 0 .273.11.273.277.059.22-.11.328-.273.328zm-1.926-1.757v-.606h-2.309v2.914h2.31v-.605h-1.65v-.606h1.594v-.605h-1.593v-.55h1.648zm-3.738 0c.273 0 .383.164.383.328s-.11.332-.383.332h-.824v-.719zm-.824 1.261h.328l.879 1.047h.828l-.992-1.101c.496-.11.77-.438.77-.88 0-.55-.384-.933-.99-.933h-1.538v2.914h.66zm-1.762-.879c0 .22-.11.387-.387.387h-.879v-.77h.824c.278 0 .442.165.442.383zm-1.926-.988v2.914h.66v-.992h.88c.605 0 1.046-.383 1.046-.988 0-.551-.387-.988-.988-.988zm-.988 2.914h.824l-1.156-1.484 1.156-1.43h-.824l-.715.934-.715-.934h-.824l1.152 1.43-1.152 1.43h.824l.715-.938zm-2.477-2.308v-.606h-2.308v2.914h2.308v-.605h-1.648v-.606h1.594v-.605H20.55v-.55h1.648zM35.566 13.8l1.153 1.761h.828v-2.917h-.66v1.925l-.168-.273-1.043-1.652h-.88v2.918h.657v-1.981zm-2.863-.055.223-.605.219.605.277.66h-.992zm1.156 1.816h.715l-1.265-2.917h-.88l-1.265 2.918h.715l.277-.606h1.43zm-3.078 0 .274-.605h-.164c-.496 0-.77-.332-.77-.824v-.059c0-.492.274-.824.77-.824h.714v-.605h-.77c-.882 0-1.374.605-1.374 1.43v.058c0 .879.492 1.43 1.32 1.43zm-2.476 0h.66V12.7h-.66zm-1.43-2.312c.273 0 .387.164.387.332 0 .164-.114.328-.387.328h-.824v-.715zm-.824 1.266h.328l.883 1.046h.824l-.992-1.101c.496-.11.77-.441.77-.879 0-.55-.384-.937-.989-.937h-1.54v2.918h.661zM24.84 13.25v-.605H22.53v2.918h2.309v-.606H23.19v-.605h1.594v-.606h-1.594v-.55h1.649zm-5.004 2.313h.605l.825-2.368v2.367h.66v-2.917h-1.102l-.66 1.98-.66-1.98h-1.098v2.918h.66v-2.368zm-3.574-1.817.218-.605.22.605.277.66h-.993zm1.152 1.816h.715l-1.266-2.917h-.824l-1.266 2.918h.715l.278-.606h1.43zm0 0"/></g></svg>