<svg xmlns="http://www.w3.org/2000/svg" xmlns:xlink="http://www.w3.org/1999/xlink" width="72" zoomAndPan="magnify" viewBox="0 0 54 32.999998" height="44" preserveAspectRatio="xMidYMid meet" version="1.0"><defs><clipPath id="id1"><path d="M 3.300781 9.757812 L 20 9.757812 L 20 25.507812 L 3.300781 25.507812 Z M 3.300781 9.757812 " clip-rule="nonzero"/></clipPath><clipPath id="id2"><path d="M 40 13 L 50.550781 13 L 50.550781 25 L 40 25 Z M 40 13 " clip-rule="nonzero"/></clipPath></defs><g clip-path="url(#id1)"><path fill="rgb(0%, 0%, 0%)" d="M 18.867188 17.632812 C 18.066406 21.980469 13.976562 25.503906 9.730469 25.503906 C 5.484375 25.503906 2.691406 21.980469 3.492188 17.632812 C 4.292969 13.28125 8.382812 9.757812 12.628906 9.757812 C 16.875 9.757812 19.667969 13.28125 18.867188 17.632812 M 14.761719 10.925781 C 17 11.894531 18.269531 14.300781 17.75 17.117188 C 17.636719 17.71875 17.457031 18.296875 17.207031 18.851562 C 17.199219 18.863281 17.191406 18.878906 17.183594 18.894531 C 16.917969 19.476562 16.59375 20.023438 16.203125 20.527344 C 16.1875 20.546875 16.175781 20.5625 16.160156 20.582031 C 16.140625 20.605469 16.121094 20.632812 16.101562 20.660156 C 15.144531 21.859375 13.957031 22.734375 12.539062 23.285156 C 12.503906 23.300781 12.46875 23.3125 12.433594 23.324219 C 12.402344 23.335938 12.371094 23.347656 12.34375 23.359375 C 12.328125 23.363281 12.3125 23.367188 12.300781 23.375 L 12.296875 23.375 C 12.273438 23.371094 12.261719 23.359375 12.261719 23.335938 L 12.261719 23.328125 C 12.261719 23.320312 12.261719 23.308594 12.261719 23.296875 L 12.292969 22.605469 C 12.976562 22.464844 13.578125 22.15625 14.09375 21.679688 C 14.40625 21.378906 14.636719 21.023438 14.78125 20.613281 C 14.929688 20.203125 14.980469 19.78125 14.929688 19.34375 C 14.90625 18.605469 14.617188 18 14.0625 17.523438 C 13.503906 17.050781 12.894531 16.65625 12.234375 16.347656 L 12.136719 16.300781 C 11.644531 16.070312 11.179688 15.800781 10.734375 15.492188 C 10.464844 15.320312 10.296875 15.078125 10.234375 14.761719 C 10.222656 14.59375 10.269531 14.453125 10.378906 14.332031 C 10.640625 14.109375 10.9375 14.007812 11.277344 14.035156 L 11.285156 14.035156 C 11.90625 14.078125 12.503906 14.234375 13.070312 14.507812 C 13.113281 14.527344 13.164062 14.535156 13.210938 14.53125 C 13.554688 14.480469 13.804688 14.292969 13.953125 13.972656 C 14.074219 13.75 14.148438 13.507812 14.171875 13.253906 C 14.179688 13.148438 14.144531 13.0625 14.0625 12.996094 C 13.511719 12.597656 12.898438 12.359375 12.226562 12.285156 C 12.203125 12.277344 12.183594 12.265625 12.167969 12.25 C 12.160156 12.238281 12.152344 12.230469 12.148438 12.21875 C 12.148438 12.210938 12.199219 11.359375 12.222656 11.070312 C 12.238281 10.949219 12.230469 10.828125 12.203125 10.710938 C 12.160156 10.566406 12.0625 10.496094 11.914062 10.503906 C 11.910156 10.503906 11.902344 10.503906 11.898438 10.503906 C 10.933594 10.59375 10.011719 10.851562 9.140625 11.285156 C 6.691406 12.476562 4.726562 14.867188 4.222656 17.621094 C 3.652344 20.722656 5.089844 23.359375 7.601562 24.351562 C 5.363281 23.382812 4.097656 20.976562 4.613281 18.160156 C 4.730469 17.546875 4.914062 16.957031 5.171875 16.390625 C 5.179688 16.378906 5.1875 16.367188 5.191406 16.355469 C 5.3125 16.09375 5.441406 15.839844 5.589844 15.59375 C 6.507812 14.054688 7.769531 12.917969 9.375 12.179688 L 9.375 12.175781 C 9.648438 12.054688 9.925781 11.945312 10.210938 11.855469 C 10.226562 11.851562 10.238281 11.847656 10.25 11.839844 L 10.253906 11.839844 C 10.277344 11.84375 10.289062 11.855469 10.289062 11.878906 L 10.289062 11.886719 C 10.285156 11.894531 10.285156 11.902344 10.289062 11.914062 L 10.242188 12.378906 C 9.628906 12.492188 9.09375 12.761719 8.628906 13.183594 C 8.363281 13.4375 8.15625 13.734375 8.003906 14.074219 C 7.851562 14.414062 7.769531 14.765625 7.75 15.140625 C 7.734375 15.511719 7.785156 15.871094 7.902344 16.222656 C 8.019531 16.574219 8.199219 16.890625 8.4375 17.171875 C 8.933594 17.738281 9.523438 18.175781 10.203125 18.484375 L 10.25 18.507812 C 10.808594 18.75 11.347656 19.03125 11.867188 19.351562 C 12.253906 19.628906 12.34375 19.839844 12.371094 20.101562 C 12.371094 20.101562 12.371094 20.105469 12.371094 20.109375 C 12.386719 20.316406 12.320312 20.492188 12.171875 20.632812 C 11.90625 20.855469 11.605469 20.957031 11.261719 20.941406 L 11.253906 20.941406 C 10.4375 20.9375 9.683594 20.714844 8.992188 20.269531 L 8.980469 20.261719 C 8.976562 20.261719 8.976562 20.261719 8.972656 20.257812 C 8.855469 20.179688 8.726562 20.136719 8.585938 20.132812 L 8.574219 20.132812 C 8.441406 20.136719 8.328125 20.1875 8.230469 20.277344 C 8.136719 20.371094 8.066406 20.480469 8.019531 20.605469 C 7.878906 20.886719 7.820312 21.1875 7.847656 21.503906 C 7.855469 21.566406 7.863281 21.628906 7.875 21.691406 C 7.890625 21.769531 7.929688 21.832031 7.996094 21.878906 C 8.671875 22.375 9.425781 22.671875 10.257812 22.761719 C 10.277344 22.765625 10.292969 22.773438 10.308594 22.789062 C 10.320312 22.800781 10.328125 22.816406 10.335938 22.832031 C 10.355469 23.261719 10.339844 23.691406 10.296875 24.121094 C 10.28125 24.261719 10.292969 24.40625 10.328125 24.542969 C 10.34375 24.585938 10.363281 24.625 10.394531 24.660156 C 10.445312 24.71875 10.511719 24.75 10.589844 24.757812 C 10.597656 24.757812 10.605469 24.757812 10.613281 24.757812 C 10.632812 24.757812 10.652344 24.753906 10.667969 24.75 C 10.804688 24.734375 10.945312 24.714844 11.082031 24.691406 L 11.082031 24.695312 C 11.597656 24.605469 12.097656 24.464844 12.585938 24.277344 C 12.59375 24.273438 12.601562 24.269531 12.609375 24.265625 C 12.6875 24.234375 12.769531 24.199219 12.847656 24.167969 C 12.859375 24.160156 12.871094 24.15625 12.886719 24.152344 C 12.964844 24.117188 13.046875 24.078125 13.125 24.042969 C 13.132812 24.039062 13.140625 24.035156 13.148438 24.035156 C 15.636719 22.855469 17.636719 20.441406 18.148438 17.652344 C 18.71875 14.554688 17.277344 11.917969 14.769531 10.925781 " fill-opacity="1" fill-rule="nonzero"/></g><path fill="rgb(0%, 0%, 0%)" d="M 21.464844 18.394531 C 21.492188 19.414062 22.140625 20.128906 23.195312 20.128906 C 23.71875 20.128906 24.203125 19.996094 24.65625 19.726562 L 25.035156 20.621094 C 24.429688 21 23.769531 21.183594 23.0625 21.171875 C 21.039062 21.171875 20.167969 19.703125 20.167969 18.058594 C 20.167969 16.261719 21.136719 14.953125 22.707031 14.953125 C 24.289062 14.953125 25.195312 16.160156 25.195312 18.082031 L 25.195312 18.394531 Z M 23.894531 17.464844 C 23.871094 16.710938 23.515625 15.972656 22.691406 15.972656 C 21.921875 15.972656 21.464844 16.660156 21.453125 17.464844 Z M 23.894531 17.464844 " fill-opacity="1" fill-rule="nonzero"/><path fill="rgb(0%, 0%, 0%)" d="M 26.40625 16.136719 L 25.773438 16.136719 L 25.367188 15.105469 L 26.40625 15.105469 L 26.40625 14.210938 C 26.40625 12.792969 27.214844 12.152344 28.269531 12.152344 C 28.65625 12.152344 29.027344 12.230469 29.382812 12.390625 L 29.125 13.433594 C 28.902344 13.339844 28.667969 13.289062 28.425781 13.28125 C 27.914062 13.28125 27.679688 13.609375 27.679688 14.1875 L 27.679688 15.105469 L 29.277344 15.105469 L 28.855469 16.132812 L 27.679688 16.132812 L 27.679688 21.046875 L 26.402344 21.046875 Z M 26.40625 16.136719 " fill-opacity="1" fill-rule="nonzero"/><path fill="rgb(0%, 0%, 0%)" d="M 30.601562 18.394531 C 30.625 19.414062 31.277344 20.128906 32.332031 20.128906 C 32.855469 20.128906 33.339844 19.996094 33.792969 19.726562 L 34.171875 20.621094 C 33.566406 21 32.90625 21.183594 32.199219 21.171875 C 30.175781 21.171875 29.304688 19.703125 29.304688 18.058594 C 29.304688 16.261719 30.273438 14.953125 31.84375 14.953125 C 33.425781 14.953125 34.332031 16.160156 34.332031 18.082031 L 34.332031 18.394531 Z M 33.03125 17.464844 C 33.007812 16.710938 32.652344 15.972656 31.828125 15.972656 C 31.058594 15.972656 30.601562 16.660156 30.589844 17.464844 Z M 33.03125 17.464844 " fill-opacity="1" fill-rule="nonzero"/><path fill="rgb(0%, 0%, 0%)" d="M 35.011719 18.121094 C 35.011719 16.3125 36.273438 14.953125 38.015625 14.953125 C 38.558594 14.941406 39.070312 15.070312 39.546875 15.34375 L 39.546875 16.460938 C 39.121094 16.160156 38.652344 16.015625 38.136719 16.023438 C 37.007812 16.023438 36.320312 16.902344 36.320312 18.082031 C 36.320312 19.375 37.007812 20.105469 38.0625 20.105469 C 38.558594 20.097656 39.015625 19.964844 39.4375 19.703125 L 39.804688 20.605469 C 39.222656 20.988281 38.585938 21.175781 37.890625 21.171875 C 36.039062 21.171875 35.011719 19.828125 35.011719 18.121094 " fill-opacity="1" fill-rule="nonzero"/><g clip-path="url(#id2)"><path fill="rgb(0%, 0%, 0%)" d="M 49.171875 15.105469 L 47.734375 19.5 L 47.710938 19.5 C 47.710938 19.5 46.625 16.855469 46.265625 15.976562 C 46.175781 15.757812 45.886719 15.105469 44.898438 15.105469 L 42.375 15.105469 L 42.375 13.335938 L 41.101562 13.738281 L 41.101562 15.105469 L 40.082031 15.105469 L 40.082031 16.136719 L 41.101562 16.136719 L 41.101562 19.640625 C 41.101562 20.605469 41.675781 21.171875 42.644531 21.171875 C 43.230469 21.175781 43.769531 21.023438 44.265625 20.707031 L 43.859375 19.804688 C 43.585938 20 43.285156 20.097656 42.953125 20.105469 C 42.574219 20.105469 42.375 19.890625 42.375 19.351562 L 42.375 16.136719 L 44.988281 16.136719 L 47.136719 21.035156 C 46.679688 22.464844 46.128906 22.945312 45.441406 22.945312 C 45.144531 22.941406 44.863281 22.867188 44.597656 22.730469 L 44.277344 23.773438 C 44.664062 23.945312 45.070312 24.03125 45.492188 24.023438 C 46.507812 24.023438 47.441406 23.710938 48.289062 21.324219 L 50.496094 15.105469 Z M 49.171875 15.105469 " fill-opacity="1" fill-rule="nonzero"/></g></svg>