<svg xmlns="http://www.w3.org/2000/svg" width="72" viewBox="0 0 54 33" height="44" version="1.0"><defs><clipPath id="a"><path d="M32 7.93h14.613V12H32zm0 0"/></clipPath><clipPath id="b"><path d="M28.613 18h18v7.18h-18zm0 0"/></clipPath><clipPath id="c"><path d="M32 11h14.613v8H32zm0 0"/></clipPath></defs><path fill="#FFF" d="M-5.4-3.3h64.8v39.6H-5.4z"/><path fill="#FFF" d="M-5.4-3.3h64.8v39.6H-5.4z"/><path d="M8.25 6.92h1.41c.61 0 1.223.156 1.691.598.47.445.782 1.171.782 2.265 0 1.098-.313 1.813-.782 2.254-.468.445-1.082.625-1.691.625v3.832H8.25zm1.41 4.312c.43 0 .703-.078.86-.3.156-.207.195-.559.195-1.094s-.04-.914-.196-1.149c-.156-.234-.43-.336-.86-.336zM12.442 16.494l1.45-9.574h1.718l1.445 9.574h-1.367l-.262-1.953h-1.355l-.258 1.953zm2.387-6.46-.04-.25h-.078l-.039.25-.406 3.023h.965zM19.956 10.357V8.885c0-.258-.051-.442-.18-.598a.41.41 0 0 0-.289-.105c-.246 0-.363.183-.414.351-.04.106-.055.223-.055.352v5.758c0 .273.067.457.196.601a.37.37 0 0 0 .273.106c.25 0 .367-.16.418-.356.039-.09.05-.207.05-.351v-1.731h-.558v-1.187h1.969v4.77h-.836l-.168-.458c-.262.328-.64.563-1.094.563-.457 0-.77-.118-1.004-.329a1.745 1.745 0 0 1-.496-.703 2.642 2.642 0 0 1-.156-1.043v-5.64a2.56 2.56 0 0 1 .234-1.028 1.78 1.78 0 0 1 .547-.718c.262-.196.625-.325 1.094-.325.469 0 .82.13 1.082.325.262.195.445.457.563.718.14.301.218.653.234 1.028v1.472zM26.053 14.525c-.016.39-.094.746-.234 1.043-.118.262-.301.508-.563.703-.262.211-.613.329-1.082.329-.469 0-.832-.118-1.094-.329a1.735 1.735 0 0 1-.547-.703 2.56 2.56 0 0 1-.234-1.043v-5.64a2.56 2.56 0 0 1 .234-1.028 1.78 1.78 0 0 1 .547-.718c.262-.196.625-.325 1.094-.325.469 0 .82.13 1.082.325.262.195.445.457.563.718.14.301.218.653.234 1.028zm-1.41-5.64c0-.258-.051-.442-.18-.598a.41.41 0 0 0-.289-.105c-.246 0-.363.183-.414.351-.04.106-.055.223-.055.352v5.64c0 .274.067.457.196.602a.387.387 0 0 0 .273.105c.25 0 .367-.16.418-.355.039-.09.05-.207.05-.352zm0 0"/><g clip-path="url(#a)"><path fill="#7D868C" d="M33.52 7.93c-.399 0-.747.242-.844.62l-.164.634c.195-.094.402-.164.636-.176l.082-.352c.028-.12.153-.215.29-.215.027 0 .042 0 .07.016l11.933 2.652c.098.028.18.094.223.176l.305.05c.094.017.191.044.289.083.012-.375-.262-.742-.68-.836L33.727 7.957c-.067-.012-.137-.027-.207-.027zm0 0"/></g><path fill="#7D868C" d="m32.844 11.324.191-.957a.344.344 0 0 1 .332-.27c.031 0 .043 0 .07.016l6.141 1.211h2.89l-8.921-1.75c-.055-.027-.121-.027-.18-.027-.426 0-.8.297-.898.715l-.235 1.172c.168-.07.348-.11.555-.11zm0 0"/><g clip-path="url(#b)"><path fill="#7D868C" d="M45.219 21.152c-.028 0-2.973.54-4.73.864a.263.263 0 0 0-.22.308.272.272 0 0 0 .317.219c1.605-.297 4.66-.852 4.715-.863.168-.028.418 0 .457.16.14.473-.899.875-1.383 1.078-.07.027-2.863 1.105-3.734 1.375-1.286.39-2.293.441-3.207.133-.567-.188-3-1.453-3.735-1.64-.441-.122-.855-.099-1.187.05l-.555.297v-2.735l1.676-.484c.012 0 1.394-.418 2.71.285 0 0 1.575.86 1.645.903.332.16 1.09.562 1.188.93.015.05.015.12-.055.226-.11.11-.621.11-2.45-.512-.245-.082-.425-.148-.538-.176a.268.268 0 0 0-.332.203.263.263 0 0 0 .21.325c.083.027.274.078.497.16 1.465.5 2.71.863 3.082.308.14-.199.195-.43.125-.656-.153-.61-1.008-1.039-1.465-1.281-.07-.027-1.645-.887-1.645-.887-1.523-.824-3.085-.351-3.14-.34l-1.52.446v-.067c0-.593-.5-1.062-1.105-1.062h-2.2v6.312h2.212c.609 0 1.105-.468 1.105-1.062v-.188l.79-.433c.276-.121.593-.078.816-.024.675.172 3.097 1.426 3.707 1.63.44.148.925.226 1.437.226.648 0 1.355-.121 2.113-.364.887-.27 3.707-1.359 3.778-1.386.691-.27 1.992-.782 1.715-1.723-.141-.473-.665-.621-1.094-.555zm0 0"/></g><path fill="#7D868C" d="M39.148 17.25c1.079 0 1.965-.863 1.965-1.914 0-1.05-.886-1.91-1.965-1.91-1.078 0-1.964.86-1.964 1.91 0 1.05.886 1.914 1.964 1.914zm-.816-1.469c.055-.11.195-.094.266 0 .054.082.082.176.136.242.055.082.11.137.207.16v-.699c-.18-.039-.316-.093-.441-.242-.125-.133-.14-.336-.113-.512.058-.253.277-.402.511-.472.028-.012.016-.012.043-.012v-.351c0-.094.11-.172.207-.172.098 0 .207.078.207.172v.351c.114.012.18.055.293.121.082.055.149.121.22.203.097.133.14.254.124.364a.136.136 0 0 1-.18.105c-.082-.012-.124-.094-.152-.16a.607.607 0 0 0-.164-.242c-.043-.028-.059-.055-.125-.082v.648c.066.012.098.04.152.055a.628.628 0 0 1 .457.699c-.015.176-.14.324-.277.418a.657.657 0 0 1-.348.133v.27c0 .093-.109.175-.207.175-.097 0-.207-.082-.207-.176v-.27a.653.653 0 0 1-.496-.323 1.572 1.572 0 0 1-.086-.145.346.346 0 0 1-.027-.258zm0 0"/><path fill="#7D868C" d="M39.563 16.078c.14-.176.054-.406-.153-.484-.027-.016-.027-.028-.055-.028v.645c.098-.012.153-.066.208-.133zM38.941 14.57c-.152.055-.304.227-.207.39.055.095.11.134.207.161zm0 0"/><g clip-path="url(#c)"><path fill="#7D868C" d="M32.234 17.96c0 .49.403.88.887.88H45.47c.484 0 .883-.39.883-.88v-5.25a.88.88 0 0 0-.883-.874H33.12a.884.884 0 0 0-.887.875zm11.547-3.874a1.196 1.196 0 0 1-.484-.633h-.692a.274.274 0 0 1-.277-.27c0-.148.125-.269.277-.269h.899c.14 0 .25.094.277.215.055.242.153.402.317.512.293.187.664.105.68.105a.3.3 0 0 1 .234.055c.07.054.097.12.097.215v2.656c0 .078-.043.16-.097.215-.07.05-.153.066-.235.05-.14-.023-.832-.12-.98.622a.286.286 0 0 1-.277.214h-.915a.274.274 0 0 1-.277-.27c0-.148.125-.269.277-.269h.692c.098-.27.262-.484.484-.632.25-.16.54-.2.762-.215V14.3c-.223 0-.5-.055-.762-.215zm-4.633-1.172c1.372 0 2.489 1.09 2.489 2.422 0 1.336-1.117 2.426-2.489 2.426-1.367 0-2.488-1.09-2.488-2.426 0-1.332 1.121-2.422 2.488-2.422zm-5.668 1.102c0-.079.04-.16.098-.215.067-.055.149-.067.234-.055.137.027.829.125.981-.617a.28.28 0 0 1 .277-.215h.899c.152 0 .277.121.277.27 0 .148-.125.27-.277.27h-.692c-.097.269-.261.483-.484.632-.25.16-.54.2-.762.215v2.074c.223 0 .5.05.762.215.234.148.387.363.484.633h.692c.152 0 .277.12.277.27 0 .148-.125.269-.277.269h-.899a.28.28 0 0 1-.277-.215c-.055-.242-.152-.406-.316-.512-.293-.191-.664-.11-.68-.11a.3.3 0 0 1-.234-.054.362.362 0 0 1-.083-.215zm0 0"/></g><path d="m9.62 25.566-.593-3.988-.035-.27h-.055v4.258h-.863V19.22h1.14l.555 2.902.043.336h.016l.043-.336.555-2.902h1.136v6.347H10.7v-4.258h-.05l-.036.27-.594 3.988zM11.995 25.566l.957-6.347h1.14l.961 6.347h-.91l-.172-1.297h-.898l-.172 1.297zm1.582-4.281-.027-.164h-.051l-.028.164-.265 2h.637zM16.466 22.258l-.078-.293h-.05v3.601h-.856V19.22h.832l.906 3.308.078.293h.05V19.22h.856v6.347h-.832zM21.372 19.219v5.043a1.731 1.731 0 0 1-.156.691c-.078.172-.199.336-.37.465-.173.14-.407.219-.72.219-.308 0-.55-.079-.722-.22a1.174 1.174 0 0 1-.364-.464c-.093-.2-.148-.43-.156-.691v-5.043h.934v5.043c0 .183.043.304.129.398a.25.25 0 0 0 .18.07c.163 0 .242-.105.277-.234a.581.581 0 0 0 .035-.234v-5.043zM21.794 25.566l.957-6.347h1.14l.962 6.347h-.91l-.172-1.297h-.899l-.172 1.297zm1.582-4.281-.027-.164h-.051l-.027.164-.266 2h.637zM25.28 19.219h.934v5.484h1.235v.863H25.28zm0 0"/></svg>