<svg xmlns="http://www.w3.org/2000/svg" width="72" viewBox="0 0 54 33" height="44" version="1.0"><defs><clipPath id="a"><path d="M41 19h9.059v7.621H41zm0 0"/></clipPath><clipPath id="b"><path d="M37.309 17.621H46V25h-8.691zm0 0"/></clipPath></defs><path fill="#FFF" d="M-5.4-3.3h64.8v39.6H-5.4z"/><path fill="#FFF" d="M-5.4-3.3h64.8v39.6H-5.4z"/><path d="M6.19 7.777V6.672h3.109v1.105H8.283V14H7.205V7.777zM11.644 14l-.558-3.09h-.29V14H9.719V6.672h1.079c1.285 0 1.832.726 1.832 2.113 0 .73-.188 1.387-.598 1.664L12.718 14zm-.847-4.086c.148 0 .347-.02.507-.16.16-.14.29-.41.29-.93 0-.515-.13-.797-.29-.933-.16-.141-.359-.153-.507-.153zM13.02 14l1.106-7.328h1.316L16.548 14H15.5l-.2-1.496h-1.035L14.063 14zm1.825-4.945-.032-.188h-.058l-.031.188-.31 2.312h.74zM18.182 10.184l-.09-.34h-.058V14h-.988V6.672h.957l1.047 3.82.09.336h.058V6.672h.988V14h-.957zM22.769 8.637c0-.239-.012-.508-.082-.72-.067-.198-.176-.339-.348-.339-.277.012-.367.3-.367.73 0 .25.11.508.27.786.156.281.367.57.577.879.247.367.497.746.688 1.117.187.367.316.746.316 1.144 0 .489-.078.95-.308 1.285-.227.34-.598.56-1.184.56-.687 0-1.078-.259-1.297-.657-.218-.399-.27-.926-.27-1.477l1.055-.097c0 .308.012.617.09.847.07.239.192.399.422.399.317 0 .438-.34.438-.809 0-.238-.121-.52-.282-.808-.09-.137-.175-.29-.277-.438-.21-.3-.437-.637-.68-1.008a4.15 4.15 0 0 1-.527-1.137 1.973 1.973 0 0 1-.09-.585c0-.399.09-.829.32-1.157a1.3 1.3 0 0 1 1.086-.558c.649-.012 1.028.258 1.239.648.207.399.265.887.265 1.293zM26.965 7.777h-1.484v1.926h.996v1.106h-.996V14h-1.078V6.672h2.562zM27.404 6.672h2.46v1.105h-1.382v1.926h.996v1.176h-.996v2.015h1.383V14h-2.461zM32.39 14l-.559-3.09h-.289V14h-1.078V6.672h1.078c1.285 0 1.832.726 1.832 2.113 0 .73-.187 1.387-.597 1.664L33.464 14zm-.848-4.086c.149 0 .348-.02.508-.16.16-.14.29-.41.29-.93 0-.515-.13-.797-.29-.933-.16-.141-.36-.153-.508-.153zM34.063 6.672h2.46v1.105h-1.382v1.926h.996v1.176h-.996v2.015h1.383V14h-2.461zM38.26 10.184l-.09-.34h-.058V14h-.988V6.672h.957l1.046 3.82.09.336h.059V6.672h.988V14h-.957zM43.862 11.488v1.008c-.008.297-.07.566-.18.797-.09.2-.226.387-.425.539-.2.156-.47.246-.828.246-.36 0-.641-.09-.84-.246-.2-.152-.328-.34-.418-.54-.11-.23-.168-.5-.18-.796V8.18c.012-.29.07-.559.18-.79.09-.199.218-.398.418-.546.199-.153.48-.25.84-.25.359 0 .628.097.828.25.199.148.336.347.425.547.11.23.172.5.18.789v1.004h-1.008V8.18c0-.2-.047-.34-.156-.461-.05-.051-.14-.078-.25-.078-.191 0-.281.136-.328.27a.919.919 0 0 0-.05.269v4.316c.007.207.07.348.167.457.05.05.121.078.211.078.23 0 .316-.117.367-.265.031-.07.04-.16.04-.27v-1.008zM44.51 6.672h1.079V14H44.51zM46.088 14l1.105-7.328h1.317L49.615 14h-1.047l-.199-1.496h-1.035L47.131 14zm1.824-4.945-.031-.188h-.059l-.03.188-.31 2.312h.739zM6.572 25.673v-7.375h.953c.64 0 1.145.122 1.473.43.332.313.504.793.504 1.527 0 .352-.031.61-.14.852-.11.242-.282.441-.532.672.27.152.473.434.633.902.078.235.117.535.117.907 0 .55-.098 1.042-.348 1.421-.254.383-.683.633-1.328.664zm1.082-4.335c.09 0 .3.011.484-.11.18-.121.32-.363.32-.875s-.14-.75-.32-.871c-.183-.121-.394-.11-.484-.11zm0 3.261c.09 0 .3.02.484-.11.18-.132.32-.421.32-1.023 0-.601-.14-.894-.32-1.023-.183-.133-.394-.11-.484-.11zM9.924 25.673l1.113-7.375h1.325l1.113 7.375H12.42l-.199-1.503h-1.043l-.203 1.503zm1.836-4.976-.031-.192h-.059l-.031.192-.313 2.328h.743zM15.123 21.83l-.09-.34h-.063v4.183h-.992v-7.375h.961l1.055 3.844.09.34h.062v-4.184h.992v7.375h-.965zM20.762 23.146v1.012c-.012.3-.07.574-.183.805-.09.199-.23.39-.43.539-.2.16-.473.253-.832.253-.363 0-.645-.093-.844-.253a1.35 1.35 0 0 1-.422-.54 1.998 1.998 0 0 1-.18-.804v-4.344c.008-.293.07-.562.18-.793.09-.203.223-.402.422-.555.2-.148.48-.25.844-.25.36 0 .633.102.832.25.2.153.34.352.43.555.113.23.171.5.183.793v1.012h-1.015v-1.012c0-.203-.051-.344-.16-.46-.051-.052-.141-.083-.25-.083-.192 0-.282.14-.333.27-.03.082-.039.172-.05.273v4.344c.011.21.07.351.171.46.051.052.122.083.211.083.23 0 .32-.121.372-.274.03-.07.039-.16.039-.27v-1.01zM21.113 25.673l1.114-7.375h1.324l1.113 7.375H23.61l-.199-1.503h-1.043l-.203 1.503zm1.836-4.976-.031-.192h-.059l-.03.192-.313 2.328h.742zM27.105 25.673l-.563-3.109h-.293v3.11h-1.082v-7.376h1.082c1.297 0 1.848.73 1.848 2.125 0 .735-.192 1.399-.602 1.676l.692 3.574zm-.856-4.113c.153 0 .352-.02.512-.16.16-.14.293-.414.293-.934 0-.523-.133-.804-.293-.945-.16-.14-.36-.148-.512-.148zM28.79 18.298h1.082v7.375H28.79zM30.376 25.673l1.113-7.375h1.324l1.114 7.375h-1.055l-.2-1.503H31.63l-.203 1.503zm1.836-4.976-.032-.192h-.058l-.031.192-.313 2.328h.742zm0 0"/><g clip-path="url(#a)"><path fill="#7D868C" d="M50.023 23.438c.008-.012.012-.028.016-.043a.114.114 0 0 0 .008-.036.297.297 0 0 0 0-.164.087.087 0 0 0-.012-.039c-.004-.011-.004-.023-.012-.039-.003-.015-.015-.027-.023-.043-.004-.008-.008-.02-.016-.027-.015-.024-.03-.047-.05-.067L47 20.09a.43.43 0 0 0-.602 0 .42.42 0 0 0 0 .594l2.211 2.175h-6.312a.423.423 0 0 0-.426.418c0 .23.191.418.426.418h6.312l-2.21 2.18a.415.415 0 0 0 .3.71c.11 0 .219-.038.301-.12l2.934-2.89c.02-.02.035-.044.05-.067.008-.008.012-.02.02-.028.008-.015.016-.027.02-.043zm0 0"/></g><g clip-path="url(#b)"><path fill="#7D868C" d="M38.754 21.445h6.312a.423.423 0 0 0 .426-.418.423.423 0 0 0-.426-.422h-6.312l2.21-2.175a.415.415 0 0 0 0-.59.43.43 0 0 0-.6 0l-2.93 2.89a.273.273 0 0 0-.07.094c-.009.016-.02.028-.024.043-.008.012-.008.028-.012.04-.004.011-.012.023-.012.038-.007.028-.007.055-.007.082 0 .028 0 .055.007.082 0 .012.008.024.012.036.004.011.004.027.012.043.004.011.015.027.023.039a.273.273 0 0 0 .07.094l2.93 2.894a.44.44 0 0 0 .301.12c.11 0 .215-.042.3-.12a.42.42 0 0 0 0-.594zm0 0"/></g></svg>